<svg xmlns="http://www.w3.org/2000/svg" xmlns:xlink="http://www.w3.org/1999/xlink" width="704" height="1024" preserveAspectRatio="xMidYMid meet" viewBox="0 0 704 1024" style="-ms-transform: rotate(360deg); -webkit-transform: rotate(360deg); transform: rotate(360deg);"><path d="M435 65h1h-1zm0 0l-72 379l262 1l-356 514l72-417l-262-1zm0-64h-5q-8 1-14 3.5T402.5 12T389 24q-1 1-1.5 2t-1.5 2L27 502q-23 32-5 67q3 6 7.5 11.5t10 10t12 7.5t13.5 4.5t14 1.5l185 1l-59 343q-4 22 7 41.5t31 28.5q6 3 12.5 4t13.5 1q29 0 49-26l359-514q23-32 5-67t-57-35H440l58-301q1-4 1.5-7.5t.5-7.5q0-9-2.5-17T491 33t-9.5-13T469 10t-15-6.5T438 1h-3z" fill="#7f7f7f"/><rect x="0" y="0" width="704" height="1024" fill="rgba(0, 0, 0, 0)" /></svg>