<svg xmlns="http://www.w3.org/2000/svg" xmlns:xlink="http://www.w3.org/1999/xlink" width="1040" height="928" preserveAspectRatio="xMidYMid meet" viewBox="0 0 1040 928" style="-ms-transform: rotate(360deg); -webkit-transform: rotate(360deg); transform: rotate(360deg);"><path d="M288 66q73 0 180 106l46 45l45-46q15-16 31.5-30t32.5-26t31.5-21T684 78.5t27.5-9.5t24.5-3q89 0 157 68q69 69 69 166t-69 167q-5 4-359 387q-5 5-11 6.5t-10 1.5q-12 0-21-8q-324-360-359-395q-8-8-15.5-17.5t-14-19t-12-19.5t-10-20.5T74 361t-5.5-22t-3.5-23t-1-23q0-98 69-167q32-31 70-45.5T288 66zm0-64q-59 0-109 19T88 81q-43 43-65.5 99T0 292.5T22.5 405T88 504q9 9 49.5 53.5t91 100.5t100 111t83.5 92l34 37q27 28 66.5 28t67.5-28q354-383 358-386q88-88 88-212T938 89q-44-44-93.5-65.5T736 2q-53 0-111.5 35T513 126Q387 2 288 2z" fill="#626262"/><rect x="0" y="0" width="1040" height="928" fill="rgba(0, 0, 0, 0)" /></svg>