<svg xmlns="http://www.w3.org/2000/svg" xmlns:xlink="http://www.w3.org/1999/xlink" width="864" height="1024" preserveAspectRatio="xMidYMid meet" viewBox="0 0 864 1024" style="-ms-transform: rotate(360deg); -webkit-transform: rotate(360deg); transform: rotate(360deg);"><path d="M576 0q-34 0-66.5 7.5t-60.5 22t-53 34t-45 44.5t-34 53.5t-21.5 61T288 288q0 107 69 187q-7 0-13.5 2.5T332 485L10 809q-10 9-10 22.5T10 854v1h1l157 160q9 9 22 9t22.5-9t9.5-22.5t-9-22.5L77 832l83-83l136 138q9 9 22 9t23-9q6-6 8-14.5t0-16.5t-8-14L205 703l172-173q5-5 7.5-11.5T387 506q81 71 189 71q119 0 203.5-84.5T864 288q0-122-88-207Q691 0 576 0zm0 512q-61 0-112.5-30T382 400.5T352 288q0-93 65.5-158.5t158-65.5T734 129.5T800 288t-66 158.5T576 512z" fill="#626262"/><rect x="0" y="0" width="864" height="1024" fill="rgba(0, 0, 0, 0)" /></svg>