<svg width="0" height="0" class="hidden">
  <symbol xmlns="http://www.w3.org/2000/svg" viewBox="0 0 704 1024" id="energy">
    <path d="M435 65h1-1zm0 0l-72 379 262 1-356 514 72-417-262-1zm0-64h-5q-8 1-14 3.5T402.5 12 389 24q-1 1-1.5 2t-1.5 2L27 502q-23 32-5 67 3 6 7.5 11.5t10 10 12 7.5 13.5 4.5 14 1.5l185 1-59 343q-4 22 7 41.5t31 28.5q6 3 12.5 4t13.5 1q29 0 49-26l359-514q23-32 5-67t-57-35H440l58-301q1-4 1.5-7.5t.5-7.5q0-9-2.5-17T491 33t-9.5-13T469 10t-15-6.5T438 1h-3z"></path>
  </symbol>
  <symbol xmlns="http://www.w3.org/2000/svg" viewBox="0 0 1024 896" id="graph">
    <path d="M944 160q-33 0-56.5 23.5T864 240q0 12 5 26L674 434q-23-18-50-18-32 0-56 23l-153-77q-2-31-24.5-52.5T336 288q-22 0-40.5 10.5t-29 29T256 368q0 17 8 34L108 581q-14-5-28-5-33 0-56.5 23.5T0 656t23.5 56.5T80 736t56.5-23.5T160 656q0-15-6-30l158-182q13 4 24 4 17 0 32-7t27-19l149 75q0 16 6.5 30.5t17 25 25.5 17 31 6.5q9 0 18-2t17-6 15-9.5 12.5-12.5 9.5-15 6-17 2-18v-4l208-179q15 7 32 7 33 0 56.5-23.5T1024 240t-23.5-56.5T944 160z"></path>
  </symbol>
  <symbol xmlns="http://www.w3.org/2000/svg" viewBox="0 0 1040 928" id="heart">
    <path d="M288 66q73 0 180 106l46 45 45-46q15-16 31.5-30t32.5-26 31.5-21T684 78.5t27.5-9.5 24.5-3q89 0 157 68 69 69 69 166t-69 167q-5 4-359 387-5 5-11 6.5t-10 1.5q-12 0-21-8-324-360-359-395-8-8-15.5-17.5t-14-19-12-19.5-10-20.5T74 361t-5.5-22-3.5-23-1-23q0-98 69-167 32-31 70-45.5T288 66zm0-64q-59 0-109 19T88 81q-43 43-65.5 99T0 292.5 22.5 405 88 504q9 9 49.5 53.5t91 100.5 100 111 83.5 92l34 37q27 28 66.5 28t67.5-28q354-383 358-386 88-88 88-212T938 89q-44-44-93.5-65.5T736 2q-53 0-111.5 35T513 126Q387 2 288 2z"></path>
  </symbol>
  <symbol xmlns="http://www.w3.org/2000/svg" viewBox="0 0 864 1024" id="key">
    <path d="M576 0q-34 0-66.5 7.5t-60.5 22-53 34-45 44.5-34 53.5-21.5 61T288 288q0 107 69 187-7 0-13.5 2.5T332 485L10 809q-10 9-10 22.5T10 854v1h1l157 160q9 9 22 9t22.5-9 9.5-22.5-9-22.5L77 832l83-83 136 138q9 9 22 9t23-9q6-6 8-14.5t0-16.5-8-14L205 703l172-173q5-5 7.5-11.5T387 506q81 71 189 71 119 0 203.5-84.5T864 288q0-122-88-207Q691 0 576 0zm0 512q-61 0-112.5-30T382 400.5 352 288q0-93 65.5-158.5t158-65.5T734 129.5 800 288t-66 158.5T576 512z"></path>
  </symbol>
  <symbol xmlns="http://www.w3.org/2000/svg" viewBox="0 0 24 24" id="arrow-right">
    <path d="M17.92 11.62a1 1 0 00-.21-.33l-5-5a1 1 0 00-1.42 1.42l3.3 3.29H7a1 1 0 000 2h7.59l-3.3 3.29a1 1 0 000 1.42 1 1 0 001.42 0l5-5a1 1 0 00.21-.33 1 1 0 000-.76z"></path>
  </symbol>
  <symbol xmlns="http://www.w3.org/2000/svg" viewBox="0 0 1664 1408" id="quote-right">
    <path d="M768 192v704q0 104-40.5 198.5T618 1258t-163.5 109.5T256 1408h-64q-26 0-45-19t-19-45v-128q0-26 19-45t45-19h64q106 0 181-75t75-181v-32q0-40-28-68t-68-28H192q-80 0-136-56T0 576V192q0-80 56-136T192 0h384q80 0 136 56t56 136zm896 0v704q0 104-40.5 198.5T1514 1258t-163.5 109.5T1152 1408h-64q-26 0-45-19t-19-45v-128q0-26 19-45t45-19h64q106 0 181-75t75-181v-32q0-40-28-68t-68-28h-224q-80 0-136-56t-56-136V192q0-80 56-136t136-56h384q80 0 136 56t56 136z"></path>
  </symbol>
    <symbol xmlns="http://www.w3.org/2000/svg" viewBox="0 0 896 1664" id="facebook">
    <path d="M895 12v264H738q-86 0-116 36t-30 108v189h293l-39 296H592v759H286V905H31V609h255V391q0-186 104-288.5T667 0q147 0 228 12z"></path>
  </symbol>
  <symbol xmlns="http://www.w3.org/2000/svg" viewBox="0 0 1536 1536" id="instagram">
    <path d="M1024 768q0-106-75-181t-181-75-181 75-75 181 75 181 181 75 181-75 75-181zm138 0q0 164-115 279t-279 115-279-115-115-279 115-279 279-115 279 115 115 279zm108-410q0 38-27 65t-65 27-65-27-27-65 27-65 65-27 65 27 27 65zM768 138q-7 0-76.5-.5t-105.5 0-96.5 3-103 10T315 169q-50 20-88 58t-58 88q-11 29-18.5 71.5t-10 103-3 96.5 0 105.5.5 76.5-.5 76.5 0 105.5 3 96.5 10 103T169 1221q20 50 58 88t88 58q29 11 71.5 18.5t103 10 96.5 3 105.5 0 76.5-.5 76.5.5 105.5 0 96.5-3 103-10 71.5-18.5q50-20 88-58t58-88q11-29 18.5-71.5t10-103 3-96.5 0-105.5-.5-76.5.5-76.5 0-105.5-3-96.5-10-103T1367 315q-20-50-58-88t-88-58q-29-11-71.5-18.5t-103-10-96.5-3-105.5 0-76.5.5zm768 630q0 229-5 317-10 208-124 322t-322 124q-88 5-317 5t-317-5q-208-10-322-124T5 1085q-5-88-5-317t5-317q10-208 124-322T451 5q88-5 317-5t317 5q208 10 322 124t124 322q5 88 5 317z"></path>
  </symbol>
  <symbol xmlns="http://www.w3.org/2000/svg" viewBox="0 0 1600 1280" id="twitter">
    <path d="M1588 152q-67 98-162 167 1 14 1 42 0 130-38 259.5T1273.5 869 1089 1079.5t-258 146-323 54.5q-271 0-496-145 35 4 78 4 225 0 401-138-105-2-188-64.5T189 777q33 5 61 5 43 0 85-11-112-23-185.5-111.5T76 454v-4q68 38 146 41-66-44-105-115T78 222q0-88 44-163 121 149 294.5 238.5T788 397q-8-38-8-74 0-134 94.5-228.5T1103 0q140 0 236 102 109-21 205-78-37 115-142 178 93-10 186-50z" fill="#626262"></path>
  </symbol>
  <symbol xmlns="http://www.w3.org/2000/svg" viewBox="0 0 20 20" id="heart-filled">
    <path d="M9.388 4.29a4.302 4.302 0 00-6.127-.016c-1.688 1.705-1.68 4.476.016 6.189l6.277 6.34c.26.263.682.263.942 0l6.245-6.304a4.408 4.408 0 00-.017-6.187 4.305 4.305 0 00-6.135-.015l-.596.603-.605-.61z"></path>
  </symbol>
  <symbol xmlns="http://www.w3.org/2000/svg" viewBox="0 0 1600 1280" id="check">
    <path d="M1575 310q0 40-28 68l-724 724-136 136q-28 28-68 28t-68-28l-136-136L53 740q-28-28-28-68t28-68l136-136q28-28 68-28t68 28l294 295 656-657q28-28 68-28t68 28l136 136q28 28 28 68z"></path>
  </symbol>
  <symbol xmlns="http://www.w3.org/2000/svg" viewBox="0 0 1024 1024" id="envelope">
    <path d="M1023 473q0-4-1-8t-2.5-8-3.5-7.5-5-6.5l-1-1q-2-3-5-6l-6-6L582 27Q555 0 514 0t-68 27L29 427q-6 6-12 13T5.5 458.5 0 481v479q0 27 19 45.5t45 18.5h896q17 0 32-8.5t23.5-23.5 8.5-32V478l-1-5zM270 726L64 916V545zm66 27l6-6 1-1 141-130q11-9 25-9t24 8l384 345H110zm421-22l203-180v362zM104 443L491 72q10-9 23-9t23 9l361 345h-1l55 55-242 215-136-121q-18-15-41-20t-47 0-43 21L317 683 75 469l27-26h2z"></path>
  </symbol>
  <symbol xmlns="http://www.w3.org/2000/svg" viewBox="0 0 864 1024" id="globe">
    <path d="M850 414q0-36-5.5-71t-16-68.5T803 210t-35-60-44-55-52.5-48.5T612 5q-8-5-16.5-5t-16 4.5T568 16q-7 12-3.5 24.5T579 60q97 57 152 151t55 203q0 90-31.5 168t-87 133-133 86.5T367 833q-13 0-26.5-1t-27-2.5-26.5-4-25.5-6T236 812t-25-9-24.5 0-17.5 17 .5 24.5T187 862q86 35 180 35h1v63h-93q-14 0-24 9t-10 22.5 10 23 24 9.5h253q14 0 23.5-9.5t9.5-23-9.5-22.5-23.5-9h-97v-67q186-22 302.5-154T850 414zm-131 3q0-57-17.5-111t-50-97.5-76-76T478 82 367 64q-72 0-137 28t-112.5 75.5-75 113T15 417q0 96 47 177t128 128 177 47q72 0 137-28t112.5-75 75-112T719 417zm-641 0q0-78 39-144.5T222.5 167 367 128q119 0 203.5 85T655 417q0 59-22.5 112T571 620.5 479 682t-112 23q-119 0-204-84.5T78 417z"></path>
  </symbol>
  <symbol xmlns="http://www.w3.org/2000/svg" viewBox="0 0 1040 928" id="heart">
    <path d="M288 66q73 0 180 106l46 45 45-46q15-16 31.5-30t32.5-26 31.5-21T684 78.5t27.5-9.5 24.5-3q89 0 157 68 69 69 69 166t-69 167q-5 4-359 387-5 5-11 6.5t-10 1.5q-12 0-21-8-324-360-359-395-8-8-15.5-17.5t-14-19-12-19.5-10-20.5T74 361t-5.5-22-3.5-23-1-23q0-98 69-167 32-31 70-45.5T288 66zm0-64q-59 0-109 19T88 81q-43 43-65.5 99T0 292.5 22.5 405 88 504q9 9 49.5 53.5t91 100.5 100 111 83.5 92l34 37q27 28 66.5 28t67.5-28q354-383 358-386 88-88 88-212T938 89q-44-44-93.5-65.5T736 2q-53 0-111.5 35T513 126Q387 2 288 2z"></path>
  </symbol>
  <symbol xmlns="http://www.w3.org/2000/svg" viewBox="0 0 1024 1024" id="map">
    <path d="M993 135L672 2 353 128 31 2q-4-1-8-1t-7.5 1T9 5t-5 5-3 7-1 8v830q0 14 9 25.5T31 896l322 127 319-129 321 126q4 1 8 1 10 0 16.5-7t6.5-18V176q0-9-4-17.5t-11-15-16-8.5zm-609 46L640 81v761L384 944V181zM64 87l256 94v762L64 839V87zm896 851l-256-96V82l256 110v746z"></path>
  </symbol>
  <symbol xmlns="http://www.w3.org/2000/svg" viewBox="0 0 1008 1008" id="phone">
    <path d="M246 37q57 78 134 200 19 32-6 79-8 16-48 89 8 12 18.5 25t22.5 27.5 26 29.5 29.5 31.5T455 552q88 88 146 130 65-38 89-50 25-14 48-14 18 0 31 8 89 54 202 134 20 16 24 42 3 27-17 58-8 12-31 40-21 26-63.5 66t-69.5 40h-2q-103-4-229-81T307 699Q8 399 0 194q0-27 40-71 39-42 65-63 26-20 42-31 21-15 49-15 32 0 50 23zm-64 41q-39 28-76 65-36 36-42 53 8 180 287.5 459T812 944q15-6 51-43t65-77q3-4 4-7.5t0-6.5q-115-80-194-130-8 0-20 6-4 2-32 18t-55 30l-33 20-33-22q-63-43-155-137-90-91-135-155l-24-31 20-35q37-67 48-87 6-12 6-20-34-54-66-102.5T198 74h-2q-8 0-14 4z"></path>
  </symbol>
</svg>